<svg version='1.1' baseProfile='basic' id='Layer_1' style='display: none;'
	 xmlns='http://www.w3.org/2000/svg' xmlns:xlink='http://www.w3.org/1999/xlink' viewBox='0 0 40 40'
	 xml:space='preserve'>
  <g id="hashtag" style="stroke:rgb(250,250,250);stroke-width:2">
    <line x1="16" y1="5" x2="16" y2="35"  />
    <line x1="24" y1="5" x2="24" y2="35"  />
    <line x1="5" y1="16" x2="35" y2="16"  />
    <line x1="5" y1="24" x2="35" y2="24"  />
  </g>
	  <symbol id="hashtag10" viewbox="0 0 10 10" style="stroke:rgb(250,250,250);stroke-width:1">
    <line x1="4" y1="0" x2="4" y2="10"  />
    <line x1="6" y1="0" x2="6" y2="10"  />
    <line x1="0" y1="4" x2="10" y2="4"  />
    <line x1="0" y1="6" x2="10" y2="6"  />
  </symbol>
  <symbol id="hashtag9" viewbox="-1 -1 11 11" style="stroke:rgb(250,250,250);stroke-width:1">
    <line x1="4" y1="0" x2="4" y2="10"  />
    <line x1="6" y1="0" x2="6" y2="10"  />
    <line x1="0" y1="4" x2="10" y2="4"  />
    <line x1="0" y1="6" x2="10" y2="6"  />
  </symbol>
  <symbol id="hashtag8" viewbox="-2 -2 12 12" style="stroke:rgb(250,250,250);stroke-width:1">
    <line x1="4" y1="0" x2="4" y2="10"  />
    <line x1="6" y1="0" x2="6" y2="10"  />
    <line x1="0" y1="4" x2="10" y2="4"  />
    <line x1="0" y1="6" x2="10" y2="6"  />
  </symbol>
</svg>

